<svg xmlns="http://www.w3.org/2000/svg" xmlns:xlink="http://www.w3.org/1999/xlink" width="340" height="340" viewBox="0 0 340 340">
  <defs>
    <filter id="Rectangle_29" x="0" y="0" width="340" height="340" filterUnits="userSpaceOnUse">
      <feOffset dy="5" input="SourceAlpha"/>
      <feGaussianBlur stdDeviation="7.5" result="blur"/>
      <feFlood flood-opacity="0.161"/>
      <feComposite operator="in" in2="blur"/>
      <feComposite in="SourceGraphic"/>
    </filter>
    <filter id="Rectangle_83" x="33" y="28" width="275" height="275" filterUnits="userSpaceOnUse">
      <feOffset input="SourceAlpha"/>
      <feGaussianBlur stdDeviation="7.5" result="blur-2"/>
      <feFlood flood-opacity="0.161"/>
      <feComposite operator="in" in2="blur-2"/>
      <feComposite in="SourceGraphic"/>
    </filter>
  </defs>
  <g id="Group_423" data-name="Group 423" transform="translate(-17.5 -22.5)">
    <g transform="matrix(1, 0, 0, 1, 17.5, 22.5)" filter="url(#Rectangle_29)">
      <rect id="Rectangle_29-2" data-name="Rectangle 29" width="295" height="295" rx="147.5" transform="translate(22.5 17.5)" fill="#fff" opacity="0.25"/>
    </g>
    <g transform="matrix(1, 0, 0, 1, 17.5, 22.5)" filter="url(#Rectangle_83)">
      <rect id="Rectangle_83-2" data-name="Rectangle 83" width="230" height="230" rx="115" transform="translate(55.5 50.5)" fill="#fff" opacity="0.35"/>
    </g>
    <g id="siren" transform="translate(126.268 114.564)">
      <g id="Group_405" data-name="Group 405" transform="translate(75.745 73.528)">
        <g id="Group_404" data-name="Group 404">
          <path id="Path_679" data-name="Path 679" d="M318.4,256a2.4,2.4,0,1,0,2.4,2.4A2.4,2.4,0,0,0,318.4,256Z" transform="translate(-316 -256)" fill="#fff"/>
        </g>
      </g>
      <g id="Group_407" data-name="Group 407" transform="translate(15.82 54.352)">
        <g id="Group_406" data-name="Group 406">
          <path id="Path_680" data-name="Path 680" d="M149.9,233.528h-2.863l-7.8-43.75A16.774,16.774,0,0,0,122.718,176h-22.35a16.77,16.77,0,0,0-16.509,13.786l-7.8,43.742H73.191A7.2,7.2,0,0,0,66,240.719v9.588a2.4,2.4,0,0,0,2.4,2.4h86.292a2.4,2.4,0,0,0,2.4-2.4v-9.588A7.2,7.2,0,0,0,149.9,233.528ZM88.577,190.635a11.977,11.977,0,0,1,11.791-9.841h22.35a11.98,11.98,0,0,1,11.792,9.834l7.652,42.9H80.924Zm63.715,57.275h-81.5v-7.191a2.4,2.4,0,0,1,2.4-2.4h76.7a2.4,2.4,0,0,1,2.4,2.4Z" transform="translate(-66 -176)" fill="#fff"/>
        </g>
      </g>
      <g id="Group_409" data-name="Group 409" transform="translate(77.598 82.936)">
        <g id="Group_408" data-name="Group 408">
          <path id="Path_681" data-name="Path 681" d="M332,316.572l-3.516-19.356a2.4,2.4,0,1,0-4.717.857l3.516,19.356a2.4,2.4,0,1,0,4.717-.857Z" transform="translate(-323.728 -295.247)" fill="#fff"/>
        </g>
      </g>
      <g id="Group_411" data-name="Group 411" transform="translate(97.318 73.528)">
        <g id="Group_410" data-name="Group 410">
          <path id="Path_682" data-name="Path 682" d="M429.011,256H408.4a2.4,2.4,0,1,0,0,4.794h20.614a2.4,2.4,0,1,0,0-4.794Z" transform="translate(-406 -256)" fill="#fff"/>
        </g>
      </g>
      <g id="Group_413" data-name="Group 413" transform="translate(0 73.528)">
        <g id="Group_412" data-name="Group 412">
          <path id="Path_683" data-name="Path 683" d="M23.011,256H2.4a2.4,2.4,0,1,0,0,4.794H23.011a2.4,2.4,0,1,0,0-4.794Z" transform="translate(0 -256)" fill="#fff"/>
        </g>
      </g>
      <g id="Group_415" data-name="Group 415" transform="translate(86.086 32.849)">
        <g id="Group_414" data-name="Group 414">
          <path id="Path_684" data-name="Path 684" d="M376.791,86.993a2.4,2.4,0,0,0-3.39,0l-13.56,13.56a2.4,2.4,0,0,0,3.39,3.39l13.56-13.56A2.4,2.4,0,0,0,376.791,86.993Z" transform="translate(-359.139 -86.291)" fill="#fff"/>
        </g>
      </g>
      <g id="Group_417" data-name="Group 417" transform="translate(18.287 32.849)">
        <g id="Group_416" data-name="Group 416">
          <path id="Path_685" data-name="Path 685" d="M93.942,100.552l-13.56-13.56a2.4,2.4,0,0,0-3.39,3.39l13.56,13.56a2.4,2.4,0,0,0,3.39-3.39Z" transform="translate(-76.29 -86.291)" fill="#fff"/>
        </g>
      </g>
      <g id="Group_419" data-name="Group 419" transform="translate(58.966 16)">
        <g id="Group_418" data-name="Group 418" transform="translate(0 0)">
          <path id="Path_686" data-name="Path 686" d="M248.4,16a2.4,2.4,0,0,0-2.4,2.4V37.573a2.4,2.4,0,0,0,4.794,0V18.4A2.4,2.4,0,0,0,248.4,16Z" transform="translate(-246 -16)" fill="#fff"/>
        </g>
      </g>
    </g>
  </g>
</svg>
